# xmcd
#
# Track frame offsets:
#	150
#	31731
#	38218
#	55242
#	71303
#	124943
#	132227
#	148798
#	172386
#	182231
#	209979
#	224014
#
# Disc length: 3158 seconds
#
# Revision: 0
# Processed by: cddbd v1.5.1PL0 Copyright (c) Steve Scherf et al.
# Submitted via: dBpowerAMP V4.0
#
DISCID=c90c540c
DTITLE=Electrofonic - Space Plants on My Mind
DYEAR=2004
DGENRE=Blues
TTITLE0=Analogy From Space
TTITLE1=Children Love Sci-Fi
TTITLE2=Walk Turtle
TTITLE3=Stairwell
TTITLE4=Pimp 3,4,5,7
TTITLE5=Straw'tween Ma Toes
TTITLE6=Johny the Space Cadet
TTITLE7=Downtown Julie Brown
TTITLE8=Wizard o'Chank
TTITLE9=Thomas
TTITLE10=Bonus
TTITLE11=Bonus
EXTD=
EXTT0=
EXTT1=
EXTT2=
EXTT3=
EXTT4=
EXTT5=
EXTT6=
EXTT7=
EXTT8=
EXTT9=
EXTT10=
EXTT11=
PLAYORDER=
